<mxfile host="65bd71144e">
    <diagram id="Pn1zxr7ZBkJ5yq4B5Aj2" name="第 1 页">
        <mxGraphModel dx="1002" dy="568" grid="1" gridSize="10" guides="1" tooltips="1" connect="1" arrows="1" fold="1" page="1" pageScale="1" pageWidth="827" pageHeight="1169" math="0" shadow="0">
            <root>
                <mxCell id="0"/>
                <mxCell id="1" parent="0"/>
                <mxCell id="2" value="Nacos 注册中心" style="rounded=0;whiteSpace=wrap;html=1;fontStyle=1" parent="1" vertex="1">
                    <mxGeometry x="260" y="80" width="450" height="60" as="geometry"/>
                </mxCell>
                <mxCell id="3" value="网关" style="rounded=0;whiteSpace=wrap;html=1;fontStyle=1" parent="1" vertex="1">
                    <mxGeometry x="140" y="80" width="110" height="530" as="geometry"/>
                </mxCell>
                <mxCell id="22" value="消息队列" style="rounded=0;whiteSpace=wrap;html=1;fontStyle=1" parent="1" vertex="1">
                    <mxGeometry x="720" y="410" width="100" height="60" as="geometry"/>
                </mxCell>
                <mxCell id="23" value="数据库" style="swimlane;whiteSpace=wrap;html=1;fontStyle=1" parent="1" vertex="1">
                    <mxGeometry x="260" y="500" width="450" height="110" as="geometry">
                        <mxRectangle x="590" y="200" width="80" height="30" as="alternateBounds"/>
                    </mxGeometry>
                </mxCell>
                <mxCell id="20" value="MySQL 数据库" style="rounded=0;whiteSpace=wrap;html=1;fontStyle=1" parent="23" vertex="1">
                    <mxGeometry x="14" y="40" width="120" height="60" as="geometry"/>
                </mxCell>
                <mxCell id="21" value="Mongo 数据库" style="rounded=0;whiteSpace=wrap;html=1;fontStyle=1" parent="23" vertex="1">
                    <mxGeometry x="165" y="40" width="120" height="60" as="geometry"/>
                </mxCell>
                <mxCell id="19" value="redis 数据库" style="rounded=0;whiteSpace=wrap;html=1;fontStyle=1" parent="23" vertex="1">
                    <mxGeometry x="310" y="40" width="120" height="60" as="geometry"/>
                </mxCell>
                <mxCell id="24" value="微服务们" style="swimlane;whiteSpace=wrap;html=1;fontStyle=1" parent="1" vertex="1">
                    <mxGeometry x="260" y="160" width="450" height="310" as="geometry"/>
                </mxCell>
                <mxCell id="11" value="service-common 数据字典服务" style="rounded=0;whiteSpace=wrap;html=1;fontStyle=1" parent="24" vertex="1">
                    <mxGeometry x="10" y="30" width="190" height="30" as="geometry"/>
                </mxCell>
                <mxCell id="12" value="service-hospital 医院服务" style="rounded=0;whiteSpace=wrap;html=1;fontStyle=1" parent="24" vertex="1">
                    <mxGeometry x="10" y="90" width="189" height="30" as="geometry"/>
                </mxCell>
                <mxCell id="13" value="service-user 用户服务" style="rounded=0;whiteSpace=wrap;html=1;fontStyle=1" parent="24" vertex="1">
                    <mxGeometry x="10" y="150" width="190" height="30" as="geometry"/>
                </mxCell>
                <mxCell id="14" value="service-sms 短信服务" style="rounded=0;whiteSpace=wrap;html=1;fontStyle=1" parent="24" vertex="1">
                    <mxGeometry x="240" y="30" width="190" height="30" as="geometry"/>
                </mxCell>
                <mxCell id="15" value="service-oss 对象存储服务" style="rounded=0;whiteSpace=wrap;html=1;fontStyle=1" parent="24" vertex="1">
                    <mxGeometry x="240" y="90" width="190" height="30" as="geometry"/>
                </mxCell>
                <mxCell id="16" value="service-order 订单服务" style="rounded=0;whiteSpace=wrap;html=1;fontStyle=1" parent="24" vertex="1">
                    <mxGeometry x="240" y="150" width="189" height="30" as="geometry"/>
                </mxCell>
                <mxCell id="17" value="service-task 定时任务服务" style="rounded=0;whiteSpace=wrap;html=1;fontStyle=1" parent="24" vertex="1">
                    <mxGeometry x="240" y="210" width="190" height="30" as="geometry"/>
                </mxCell>
                <mxCell id="18" value="service-statistics 统计分析服务" style="rounded=0;whiteSpace=wrap;html=1;fontStyle=1" parent="24" vertex="1">
                    <mxGeometry x="240" y="270" width="190" height="30" as="geometry"/>
                </mxCell>
                <mxCell id="25" value="第三方开放平台" style="rounded=0;whiteSpace=wrap;html=1;fontStyle=1" parent="1" vertex="1">
                    <mxGeometry x="720" y="80" width="100" height="160" as="geometry"/>
                </mxCell>
                <mxCell id="26" value="OSS" style="rounded=0;whiteSpace=wrap;html=1;fontStyle=1" parent="1" vertex="1">
                    <mxGeometry x="720" y="315" width="100" height="60" as="geometry"/>
                </mxCell>
                <mxCell id="27" value="SMS" style="rounded=0;whiteSpace=wrap;html=1;fontStyle=1" parent="1" vertex="1">
                    <mxGeometry x="720" y="250" width="100" height="60" as="geometry"/>
                </mxCell>
                <mxCell id="28" value="Java SDK" style="rounded=0;whiteSpace=wrap;html=1;fontStyle=1" parent="1" vertex="1">
                    <mxGeometry x="720" y="540" width="100" height="60" as="geometry"/>
                </mxCell>
                <mxCell id="29" value="医院后台" style="rounded=0;whiteSpace=wrap;html=1;fontStyle=1" parent="1" vertex="1">
                    <mxGeometry x="10" y="80" width="120" height="100" as="geometry"/>
                </mxCell>
                <mxCell id="30" value="平台后台管理" style="rounded=0;whiteSpace=wrap;html=1;fontStyle=1" parent="1" vertex="1">
                    <mxGeometry x="10" y="510" width="120" height="100" as="geometry"/>
                </mxCell>
                <mxCell id="32" value="前台门户" style="rounded=0;whiteSpace=wrap;html=1;fontStyle=1" parent="1" vertex="1">
                    <mxGeometry x="10" y="200" width="120" height="290" as="geometry"/>
                </mxCell>
            </root>
        </mxGraphModel>
    </diagram>
</mxfile>